<svg width="24" height="24" viewBox="0 0 24 24" fill="none" xmlns="http://www.w3.org/2000/svg">
<path d="M21 13.5C17.2131 20.1667 6.78687 20.1667 3 13.5M21 10.5C17.2131 3.83333 6.78687 3.83333 3 10.5" stroke="#CCCCCC" stroke-linecap="round" stroke-linejoin="round"/>
<path d="M15.4459 11.387C15.5445 11.9415 15.5079 12.5117 15.3391 13.049C15.1703 13.5863 14.8743 14.075 14.4763 14.4735C14.0783 14.8719 13.5899 15.1685 13.0528 15.3379C12.5157 15.5073 11.9456 15.5446 11.3909 15.4466" stroke="#CCCCCC" stroke-linecap="round"/>
<path d="M8.5541 12.613C8.45545 12.0585 8.49209 11.4883 8.66089 10.951C8.8297 10.4137 9.12568 9.92503 9.52371 9.52654C9.92174 9.12805 10.4101 8.83151 10.9472 8.66209C11.4843 8.49268 12.0544 8.45539 12.6091 8.5534" stroke="#CCCCCC" stroke-linecap="round"/>
<path d="M15.5 8.5L8.5 15.5" stroke="#CCCCCC" stroke-linecap="round"/>
</svg>
